<svg width="25" height="25" viewBox="0 0 25 25" fill="none" xmlns="file:///C:/Users/Megha/OneDrive/Desktop/public/flowbiteeyesolid.svg">
<path fill-rule="evenodd" clip-rule="evenodd" d="M5.498 8.28C7.229 6.845 9.698 5.5 12.5 5.5C15.302 5.5 17.77 6.845 19.502 8.28C20.2852 8.92152 20.9888 9.65439 21.598 10.463C21.851 10.807 22.063 11.145 22.216 11.46C22.356 11.746 22.5 12.118 22.5 12.5C22.5 12.882 22.355 13.254 22.216 13.54C22.04 13.89 21.8332 14.2237 21.598 14.537C20.9888 15.3456 20.2852 16.0785 19.502 16.72C17.771 18.155 15.302 19.5 12.5 19.5C9.698 19.5 7.23 18.155 5.498 16.72C4.71482 16.0785 4.01116 15.3456 3.402 14.537C3.16682 14.2237 2.96 13.89 2.784 13.54C2.644 13.254 2.5 12.882 2.5 12.5C2.5 12.118 2.645 11.746 2.784 11.46C2.937 11.145 3.149 10.807 3.402 10.463C4.01116 9.65439 4.71482 8.92152 5.498 8.28ZM12.5 15.5C13.2956 15.5 14.0587 15.1839 14.6213 14.6213C15.1839 14.0587 15.5 13.2956 15.5 12.5C15.5 11.7044 15.1839 10.9413 14.6213 10.3787C14.0587 9.81607 13.2956 9.5 12.5 9.5C11.7044 9.5 10.9413 9.81607 10.3787 10.3787C9.81607 10.9413 9.5 11.7044 9.5 12.5C9.5 13.2956 9.81607 14.0587 10.3787 14.6213C10.9413 15.1839 11.7044 15.5 12.5 15.5Z" fill="#FFDC22"/>
</svg>
