<svg width="49" height="48" viewBox="0 0 49 48" fill="none" xmlns="http://www.w3.org/2000/svg">
<path d="M28.5219 2.27905C27.125 2.30718 26.1219 2.57905 25.4563 3.06655L16.3344 7.95093L11.2625 14.85C10.1938 16.5 10.9531 19.6875 14.2906 17.6437L17.9469 12.825C22.5875 8.8228 32.0563 10.6594 27.5656 18.6937C25.3625 23.3437 26.3938 25.6125 29.2344 26.5687L30.5281 22.2187C32.7688 17.175 36.95 16.2656 36.7813 12.1969L46.8313 12.9187L46.7375 2.4103L28.5219 2.27905ZM23.45 11.9719C21.8188 11.9437 20.2156 12.6187 19.0531 13.5937L15.3875 18.4125C16.3906 19.2094 17.4031 18.7781 18.4063 17.8125C19.5875 18.4125 20.5063 17.4844 21.2563 15.6281C21.5656 14.3625 22.025 13.4719 23.45 11.9719ZM15.9875 20.9719C15.95 20.9719 15.9031 20.9719 15.8656 20.9812C15.5563 21.0469 15.1906 21.375 14.9469 22.125C14.6938 22.875 14.6375 23.9437 14.8625 25.0875C15.0875 26.2219 15.5563 27.1875 16.0813 27.7875C16.5875 28.3781 17.0563 28.5469 17.3656 28.4812C17.6844 28.425 18.0406 28.0875 18.2844 27.3469C18.5375 26.5969 18.6031 25.5187 18.3781 24.3844C18.1438 23.2406 17.675 22.275 17.1594 21.6844C16.7094 21.1594 16.2969 20.9719 15.9875 20.9719ZM23.7313 30.9844C22.9906 30.9937 22.0625 31.2281 21.1531 31.6687C20.1125 32.1844 19.2969 32.8969 18.8563 33.5531C18.4156 34.2 18.3781 34.6875 18.5188 34.9781C18.6594 35.2594 19.0719 35.5312 19.8594 35.5687C20.6469 35.6156 21.7063 35.4 22.7469 34.8844C23.7875 34.3687 24.6031 33.6656 25.0438 33.0094C25.4844 32.3625 25.5219 31.8656 25.3813 31.5844C25.2406 31.2937 24.8281 31.0312 24.0406 30.9937C23.9375 30.9844 23.8438 30.9844 23.7313 30.9844ZM14.5813 39.9469C14.1406 39.9562 13.7375 40.0219 13.3813 40.125C12.5844 40.3594 12.125 40.7812 11.975 41.2781C11.8156 41.7844 11.975 42.3844 12.5094 43.0312C13.0531 43.6687 13.9625 44.2781 15.0875 44.6156C16.2031 44.9531 17.2906 44.9437 18.0969 44.7C18.9031 44.4656 19.3625 44.0437 19.5125 43.5469C19.6625 43.0406 19.5125 42.4406 18.9688 41.7937C18.4344 41.1562 17.525 40.5469 16.4 40.2094C15.7625 40.0219 15.1438 39.9375 14.5813 39.9469Z" fill="#2E2E2E"/>
</svg>
