<svg width="48" height="49" viewBox="0 0 48 49" fill="none" xmlns="http://www.w3.org/2000/svg">
<g clip-path="url(#clip0_5_997)">
<path d="M34.8 35.8C35.7548 35.8 36.6705 36.1793 37.3456 36.8544C38.0207 37.5295 38.4 38.4452 38.4 39.4C38.4 40.3548 38.0207 41.2705 37.3456 41.9456C36.6705 42.6207 35.7548 43 34.8 43C33.8452 43 32.9295 42.6207 32.2544 41.9456C31.5793 41.2705 31.2 40.3548 31.2 39.4C31.2 37.402 32.802 35.8 34.8 35.8ZM6 7H11.886L13.578 10.6H40.2C40.6774 10.6 41.1352 10.7896 41.4728 11.1272C41.8104 11.4648 42 11.9226 42 12.4C42 12.706 41.91 13.012 41.784 13.3L35.34 24.946C34.728 26.044 33.54 26.8 32.19 26.8H18.78L17.16 29.734L17.106 29.95C17.106 30.0693 17.1534 30.1838 17.2378 30.2682C17.3222 30.3526 17.4367 30.4 17.556 30.4H38.4V34H16.8C15.8452 34 14.9295 33.6207 14.2544 32.9456C13.5793 32.2705 13.2 31.3548 13.2 30.4C13.2 29.77 13.362 29.176 13.632 28.672L16.08 24.262L9.6 10.6H6V7ZM16.8 35.8C17.7548 35.8 18.6705 36.1793 19.3456 36.8544C20.0207 37.5295 20.4 38.4452 20.4 39.4C20.4 40.3548 20.0207 41.2705 19.3456 41.9456C18.6705 42.6207 17.7548 43 16.8 43C15.8452 43 14.9295 42.6207 14.2544 41.9456C13.5793 41.2705 13.2 40.3548 13.2 39.4C13.2 37.402 14.802 35.8 16.8 35.8ZM33 23.2L38.004 14.2H15.252L19.5 23.2H33Z" fill="#2E2E2E"/>
</g>
<defs>
<clipPath id="clip0_5_997">
<rect width="48" height="48" fill="white" transform="translate(0 0.5)"/>
</clipPath>
</defs>
</svg>
