<svg width="19" height="18" viewBox="0 0 19 18" fill="none" xmlns="http://www.w3.org/2000/svg">
<path d="M13.75 12.56C13.18 12.56 12.67 12.785 12.28 13.1375L6.9325 10.025C6.97 9.8525 7 9.68 7 9.5C7 9.32 6.97 9.1475 6.9325 8.975L12.22 5.8925C12.625 6.2675 13.1575 6.5 13.75 6.5C14.995 6.5 16 5.495 16 4.25C16 3.005 14.995 2 13.75 2C12.505 2 11.5 3.005 11.5 4.25C11.5 4.43 11.53 4.6025 11.5675 4.775L6.28 7.8575C5.875 7.4825 5.3425 7.25 4.75 7.25C3.505 7.25 2.5 8.255 2.5 9.5C2.5 10.745 3.505 11.75 4.75 11.75C5.3425 11.75 5.875 11.5175 6.28 11.1425L11.62 14.2625C11.5825 14.42 11.56 14.585 11.56 14.75C11.56 15.9575 12.5425 16.94 13.75 16.94C14.9575 16.94 15.94 15.9575 15.94 14.75C15.94 13.5425 14.9575 12.56 13.75 12.56Z" fill="#FFDC22"/>
</svg>
