<svg width="25" height="24" viewBox="0 0 25 24" fill="none" xmlns="http://www.w3.org/2000/svg">
<path d="M19.5 7C19.5 5.9 18.6 5 17.5 5H15.5C14.95 5 14.5 5.45 14.5 6C14.5 6.55 14.95 7 15.5 7H17.5V9.65L14.02 14H10.5V10C10.5 9.45 10.05 9 9.5 9H6.5C4.29 9 2.5 10.79 2.5 13V15C2.5 15.55 2.95 16 3.5 16H4.5C4.5 17.66 5.84 19 7.5 19C9.16 19 10.5 17.66 10.5 16H14.02C14.63 16 15.2 15.72 15.58 15.25L19.06 10.9C19.35 10.54 19.5 10.1 19.5 9.65V7ZM7.5 17C6.95 17 6.5 16.55 6.5 16H8.5C8.5 16.55 8.05 17 7.5 17Z" fill="#2E2E2E"/>
<path d="M6.5 6H9.5C10.05 6 10.5 6.45 10.5 7C10.5 7.55 10.05 8 9.5 8H6.5C5.95 8 5.5 7.55 5.5 7C5.5 6.45 5.95 6 6.5 6ZM19.5 13C17.84 13 16.5 14.34 16.5 16C16.5 17.66 17.84 19 19.5 19C21.16 19 22.5 17.66 22.5 16C22.5 14.34 21.16 13 19.5 13ZM19.5 17C18.95 17 18.5 16.55 18.5 16C18.5 15.45 18.95 15 19.5 15C20.05 15 20.5 15.45 20.5 16C20.5 16.55 20.05 17 19.5 17Z" fill="#2E2E2E"/>
</svg>
