<svg width="24" height="24" viewBox="0 0 24 24" fill="none" xmlns="http://www.w3.org/2000/svg">
<path d="M16.8386 2.71207C18.151 2.71582 19.4085 3.21641 20.3366 4.1045C21.2646 4.9926 21.7876 6.19604 21.7916 7.45199V16.9308C21.7876 18.1868 21.2646 19.3902 20.3366 20.2783C19.4085 21.1664 18.151 21.667 16.8386 21.6707H6.9338C5.6214 21.667 4.36388 21.1664 3.43587 20.2783C2.50786 19.3902 1.98478 18.1868 1.98086 16.9308V7.45199C1.98478 6.19604 2.50786 4.9926 3.43587 4.1045C4.36388 3.21641 5.6214 2.71582 6.9338 2.71207H16.8386ZM16.8386 0.816406H6.9338C3.12013 0.816406 0 3.80234 0 7.45199V16.9308C0 20.5805 3.12013 23.5664 6.9338 23.5664H16.8386C20.6523 23.5664 23.7724 20.5805 23.7724 16.9308V7.45199C23.7724 3.80234 20.6523 0.816406 16.8386 0.816406Z" fill="#FFFFF0"/>
<path d="M18.3244 7.45215C18.0306 7.45215 17.7433 7.36876 17.499 7.21252C17.2546 7.05628 17.0642 6.83422 16.9517 6.5744C16.8393 6.31459 16.8099 6.0287 16.8672 5.75288C16.9245 5.47706 17.066 5.22371 17.2738 5.02486C17.4816 4.826 17.7463 4.69058 18.0345 4.63572C18.3228 4.58086 18.6215 4.60901 18.893 4.71663C19.1645 4.82425 19.3965 5.0065 19.5598 5.24032C19.723 5.47415 19.8102 5.74905 19.8102 6.03027C19.8106 6.21711 19.7725 6.40219 19.6979 6.57488C19.6234 6.74757 19.514 6.90447 19.3759 7.03659C19.2379 7.1687 19.0739 7.27342 18.8935 7.34473C18.713 7.41605 18.5196 7.45255 18.3244 7.45215ZM11.8862 8.39973C12.6699 8.39973 13.4359 8.62211 14.0875 9.03877C14.7391 9.45542 15.247 10.0476 15.5469 10.7405C15.8468 11.4334 15.9252 12.1958 15.7723 12.9313C15.6195 13.6669 15.2421 14.3425 14.688 14.8728C14.1338 15.4031 13.4278 15.7642 12.6592 15.9105C11.8906 16.0568 11.0939 15.9818 10.3699 15.6948C9.64593 15.4078 9.02711 14.9218 8.59174 14.2982C8.15636 13.6746 7.92398 12.9415 7.92398 12.1916C7.9251 11.1862 8.34291 10.2224 9.08573 9.51152C9.82855 8.80064 10.8357 8.4008 11.8862 8.39973ZM11.8862 6.50406C10.7108 6.50406 9.56175 6.83763 8.58441 7.46258C7.60707 8.08753 6.84533 8.9758 6.39551 10.0151C5.94569 11.0543 5.828 12.1979 6.05731 13.3011C6.28663 14.4044 6.85265 15.4178 7.68381 16.2132C8.51497 17.0086 9.57393 17.5503 10.7268 17.7698C11.8796 17.9892 13.0746 17.8766 14.1606 17.4461C15.2465 17.0157 16.1747 16.2867 16.8277 15.3514C17.4808 14.4161 17.8293 13.3164 17.8293 12.1916C17.8293 10.6831 17.2032 9.23651 16.0886 8.16989C14.9741 7.10328 13.4624 6.50406 11.8862 6.50406Z" fill="#FFFFF0"/>
</svg>
