<svg width="19" height="18" viewBox="0 0 19 18" fill="none" xmlns="http://www.w3.org/2000/svg">
<path d="M8.75 12.75H10.25V8.25H8.75V12.75ZM9.5 6.75C9.7125 6.75 9.89075 6.678 10.0348 6.534C10.1788 6.39 10.2505 6.212 10.25 6C10.2495 5.788 10.1775 5.61 10.034 5.466C9.8905 5.322 9.7125 5.25 9.5 5.25C9.2875 5.25 9.1095 5.322 8.966 5.466C8.8225 5.61 8.7505 5.788 8.75 6C8.7495 6.212 8.8215 6.39025 8.966 6.53475C9.1105 6.67925 9.2885 6.751 9.5 6.75ZM9.5 16.5C8.4625 16.5 7.4875 16.303 6.575 15.909C5.6625 15.515 4.86875 14.9808 4.19375 14.3063C3.51875 13.6318 2.9845 12.838 2.591 11.925C2.1975 11.012 2.0005 10.037 2 9C1.9995 7.963 2.1965 6.988 2.591 6.075C2.9855 5.162 3.51975 4.36825 4.19375 3.69375C4.86775 3.01925 5.6615 2.485 6.575 2.091C7.4885 1.697 8.4635 1.5 9.5 1.5C10.5365 1.5 11.5115 1.697 12.425 2.091C13.3385 2.485 14.1323 3.01925 14.8063 3.69375C15.4803 4.36825 16.0148 5.162 16.4098 6.075C16.8048 6.988 17.0015 7.963 17 9C16.9985 10.037 16.8015 11.012 16.409 11.925C16.0165 12.838 15.4823 13.6318 14.8063 14.3063C14.1303 14.9808 13.3365 15.5152 12.425 15.9097C11.5135 16.3042 10.5385 16.501 9.5 16.5Z" fill="#FFDC22"/>
</svg>
