<svg width="19" height="18" viewBox="0 0 19 18" fill="none" xmlns="http://www.w3.org/2000/svg">
<path d="M4.125 4.75C3.82663 4.75 3.54048 4.63147 3.3295 4.4205C3.11853 4.20952 3 3.92337 3 3.625C3 3.32663 3.11853 3.04048 3.3295 2.8295C3.54048 2.61853 3.82663 2.5 4.125 2.5C4.42337 2.5 4.70952 2.61853 4.9205 2.8295C5.13147 3.04048 5.25 3.32663 5.25 3.625C5.25 3.92337 5.13147 4.20952 4.9205 4.4205C4.70952 4.63147 4.42337 4.75 4.125 4.75ZM16.0575 8.185L9.3075 1.435C9.0375 1.165 8.6625 1 8.25 1H3C2.1675 1 1.5 1.6675 1.5 2.5V7.75C1.5 8.1625 1.665 8.5375 1.9425 8.8075L8.685 15.5575C8.9625 15.8275 9.3375 16 9.75 16C10.1625 16 10.5375 15.8275 10.8075 15.5575L16.0575 10.3075C16.335 10.0375 16.5 9.6625 16.5 9.25C16.5 8.83 16.3275 8.455 16.0575 8.185Z" fill="#2E2E2E"/>
</svg>
