<svg width="49" height="48" viewBox="0 0 49 48" fill="none" xmlns="http://www.w3.org/2000/svg">
<path d="M20 28.5C20 28.8978 19.842 29.2794 19.5607 29.5607C19.2794 29.842 18.8978 30 18.5 30H11C10.6022 30 10.2206 29.842 9.93934 29.5607C9.65804 29.2794 9.5 28.8978 9.5 28.5C9.5 28.1022 9.65804 27.7206 9.93934 27.4393C10.2206 27.158 10.6022 27 11 27H18.5C18.8978 27 19.2794 27.158 19.5607 27.4393C19.842 27.7206 20 28.1022 20 28.5ZM32 6H36.5C36.8978 6 37.2794 5.84196 37.5607 5.56066C37.842 5.27936 38 4.89782 38 4.5C38 4.10218 37.842 3.72064 37.5607 3.43934C37.2794 3.15804 36.8978 3 36.5 3H30.5C30.1022 3 29.7206 3.15804 29.4393 3.43934C29.158 3.72064 29 4.10218 29 4.5V10.5H32V6ZM45.5 21.75V33C45.5 33.7956 45.1839 34.5587 44.6213 35.1213C44.0587 35.6839 43.2957 36 42.5 36H26V42C26 42.3978 25.842 42.7794 25.5607 43.0607C25.2794 43.342 24.8978 43.5 24.5 43.5C24.1022 43.5 23.7206 43.342 23.4393 43.0607C23.158 42.7794 23 42.3978 23 42V36H6.5C5.70435 36 4.94129 35.6839 4.37868 35.1213C3.81607 34.5587 3.5 33.7956 3.5 33V21.75C3.50347 18.7674 4.68985 15.9079 6.79889 13.7989C8.90792 11.6899 11.7674 10.5035 14.75 10.5H29V27C29 27.3978 29.158 27.7794 29.4393 28.0607C29.7206 28.342 30.1022 28.5 30.5 28.5C30.8978 28.5 31.2794 28.342 31.5607 28.0607C31.842 27.7794 32 27.3978 32 27V10.5H34.25C37.2326 10.5035 40.0921 11.6899 42.2011 13.7989C44.3101 15.9079 45.4965 18.7674 45.5 21.75ZM23 21.75C23 19.562 22.1308 17.4635 20.5836 15.9164C19.0365 14.3692 16.938 13.5 14.75 13.5C12.562 13.5 10.4635 14.3692 8.91637 15.9164C7.36919 17.4635 6.5 19.562 6.5 21.75V33H23V21.75Z" fill="#2E2E2E"/>
</svg>
