<svg width="27" height="21" viewBox="0 0 27 21" fill="none" xmlns="http://www.w3.org/2000/svg">
<path d="M26.0153 2.46583C25.0599 2.8784 24.049 3.15021 23.0146 3.27266C24.1017 2.64005 24.9192 1.63503 25.3138 0.446102C24.286 1.04337 23.1634 1.46244 21.9942 1.68536C21.5018 1.17253 20.9096 0.764568 20.2536 0.486257C19.5977 0.207947 18.8916 0.0651051 18.1784 0.0664152C15.2906 0.0664152 12.9537 2.35509 12.9537 5.17637C12.9517 5.5688 12.9969 5.96007 13.0885 6.3418C11.0178 6.24533 8.99017 5.72037 7.13532 4.80051C5.28046 3.88065 3.63923 2.58615 2.31663 0.999813C1.85263 1.77718 1.60725 2.66413 1.60611 3.56798C1.60611 5.33985 2.53632 6.90606 3.94091 7.82364C3.10873 7.80401 2.2936 7.58512 1.56473 7.18555V7.24883C1.56473 9.72735 3.36888 11.7893 5.75674 12.2586C5.30771 12.3776 4.84498 12.4378 4.38027 12.4379C4.05052 12.4385 3.72153 12.4067 3.39807 12.343C4.06189 14.3732 5.99393 15.8498 8.28256 15.892C6.42288 17.3163 4.13969 18.0861 1.79184 18.0805C1.37509 18.0799 0.958722 18.0552 0.544846 18.0066C2.93333 19.5223 5.70975 20.3241 8.54363 20.3164C18.1672 20.3164 23.4247 12.5275 23.4247 5.77227C23.4247 5.55079 23.4189 5.3293 23.4083 5.11309C24.4288 4.39172 25.3116 3.49526 26.0153 2.46583Z" fill="#FFFFF0"/>
</svg>
