<svg width="48" height="49" viewBox="0 0 48 49" fill="none" xmlns="http://www.w3.org/2000/svg">
<rect y="0.5" width="48" height="48" rx="24" fill="white"/>
<path d="M34 18.5C34 15.738 32.88 13.238 31.072 11.43C29.262 9.62 26.762 8.5 24 8.5C21.238 8.5 18.738 9.62 16.928 11.43C15.12 13.238 14 15.738 14 18.5C14 21.262 15.12 23.762 16.928 25.57C18.738 27.38 21.238 28.5 24 28.5C26.762 28.5 29.262 27.38 31.072 25.57C32.0017 24.6425 32.739 23.5405 33.2415 22.3272C33.7439 21.1139 34.0017 19.8132 34 18.5ZM12 38.5C12 40.5 16.5 42.5 24 42.5C31.036 42.5 36 40.5 36 38.5C36 34.5 31.292 30.5 24 30.5C16.5 30.5 12 34.5 12 38.5Z" fill="#FC6736"/>
</svg>
