<svg width="24" height="24" viewBox="0 0 24 24" fill="none" xmlns="http://www.w3.org/2000/svg">
<path d="M12 24L10.26 22.2736C4.08 16.1657 0 12.1243 0 7.19346C0 3.15204 2.904 0 6.6 0C8.688 0 10.692 1.0594 12 2.72044C13.308 1.0594 15.312 0 17.4 0C21.096 0 24 3.15204 24 7.19346C24 12.1243 19.92 16.1657 13.74 22.2736L12 24Z" fill="black"/>
<path d="M10.6122 21.9186L10.6115 21.9179C7.51234 18.855 4.97793 16.3462 3.21251 13.9921C1.45355 11.6466 0.5 9.50803 0.5 7.19346C0.5 3.38741 3.21923 0.5 6.6 0.5C8.52014 0.5 10.3846 1.47716 11.6072 3.02977L12 3.52862L12.3928 3.02977C13.6154 1.47716 15.4799 0.5 17.4 0.5C20.7808 0.5 23.5 3.38741 23.5 7.19346C23.5 9.50803 22.5464 11.6466 20.7875 13.9921C19.0221 16.3462 16.4877 18.855 13.3885 21.9179L13.3878 21.9186L12 23.2956L10.6122 21.9186Z" stroke="#FF0000" stroke-opacity="0.3"/>
</svg>
